<?xml version="1.0"?>
<svg xmlns="http://www.w3.org/2000/svg" xmlns:xlink="http://www.w3.org/1999/xlink" xmlns:ev="http://www.w3.org/2001/xml-events" version="1.1" baseProfile="full" viewBox="-111 -208.5 319.5 319.5">
	<g>
		<g>
			<path fill="none" d=" M10,-20 L200,-10" stroke="#000000" />
		</g>
		<g>
			<path fill="none" d=" M10,-40 L180,-10" stroke="#000000" />
		</g>
		<g>
			<path fill="none" d=" M10,-60 L160,-10" stroke="#000000" />
		</g>
		<g>
			<path fill="none" d=" M10,-80 L140,-10" stroke="#000000" />
		</g>
		<g>
			<path fill="none" d=" M10,-100 L120,-10" stroke="#000000" />
		</g>
		<g>
			<path fill="none" d=" M10,-120 L100,-10" stroke="#000000" />
		</g>
		<g>
			<path fill="none" d=" M10,-140 L80,-10" stroke="#000000" />
		</g>
		<g>
			<path fill="none" d=" M10,-160 L60,-10" stroke="#000000" />
		</g>
		<g>
			<path fill="none" d=" M10,-180 L40,-10" stroke="#000000" />
		</g>
		<g>
			<path fill="none" d=" M10,-200 L20,-10" stroke="#000000" />
		</g>
	</g>
	<g>
		<rect x="-20" y="-27.5" width="20" height="15" />
	</g>
	<g>
		<rect x="192.5" y="0" width="15" height="110" />
	</g>
	<g>
		<rect x="-30" y="-47.5" width="30" height="15" />
	</g>
	<g>
		<rect x="172.5" y="0" width="15" height="100" />
	</g>
	<g>
		<rect x="-40" y="-67.5" width="40" height="15" />
	</g>
	<g>
		<rect x="152.5" y="0" width="15" height="90" />
	</g>
	<g>
		<rect x="-50" y="-87.5" width="50" height="15" />
	</g>
	<g>
		<rect x="132.5" y="0" width="15" height="80" />
	</g>
	<g>
		<rect x="-60" y="-107.5" width="60" height="15" />
	</g>
	<g>
		<rect x="112.5" y="0" width="15" height="70" />
	</g>
	<g>
		<rect x="-70" y="-127.5" width="70" height="15" />
	</g>
	<g>
		<rect x="92.5" y="0" width="15" height="60" />
	</g>
	<g>
		<rect x="-80" y="-147.5" width="80" height="15" />
	</g>
	<g>
		<rect x="72.5" y="0" width="15" height="50" />
	</g>
	<g>
		<rect x="-90" y="-167.5" width="90" height="15" />
	</g>
	<g>
		<rect x="52.5" y="0" width="15" height="40" />
	</g>
	<g>
		<rect x="-100" y="-187.5" width="100" height="15" />
	</g>
	<g>
		<rect x="32.5" y="0" width="15" height="30" />
	</g>
	<g>
		<rect x="-110" y="-207.5" width="110" height="15" />
	</g>
	<g>
		<rect x="12.5" y="0" width="15" height="20" />
	</g>
</svg>
